<mxfile host="app.diagrams.net" agent="Mozilla/5.0 (Windows NT 10.0; Win64; x64) AppleWebKit/537.36 (KHTML, like Gecko) Chrome/129.0.0.0 Safari/537.36" version="24.7.17">
  <diagram name="第 1 页" id="N_GJrwax7397YC5VrXUw">
    <mxGraphModel dx="1434" dy="772" grid="1" gridSize="10" guides="1" tooltips="1" connect="1" arrows="1" fold="1" page="1" pageScale="1" pageWidth="827" pageHeight="1169" math="0" shadow="0">
      <root>
        <mxCell id="0" />
        <mxCell id="1" parent="0" />
        <mxCell id="83f_WDFYDTiC7E0U7w7g-1" value="&lt;span style=&quot;color: rgb(50, 50, 50); font-family: &amp;quot;Microsoft YaHei&amp;quot;, 微软雅黑, Arial; font-size: 14px; background-color: rgba(255, 255, 255, 0.01);&quot;&gt;1、数据分类&lt;/span&gt;&lt;div style=&quot;resize: none; outline: none; font-size: 14px; color: rgb(50, 50, 50); font-family: &amp;quot;Microsoft YaHei&amp;quot;, 微软雅黑, Arial;&quot;&gt;2、数据同步方式&lt;/div&gt;&lt;div style=&quot;resize: none; outline: none; font-size: 14px; color: rgb(50, 50, 50); font-family: &amp;quot;Microsoft YaHei&amp;quot;, 微软雅黑, Arial;&quot;&gt;3、数据触发方式&lt;/div&gt;&lt;div style=&quot;resize: none; outline: none; font-size: 14px; color: rgb(50, 50, 50); font-family: &amp;quot;Microsoft YaHei&amp;quot;, 微软雅黑, Arial;&quot;&gt;4、数据预处理融合&lt;/div&gt;" style="whiteSpace=wrap;html=1;aspect=fixed;align=left;verticalAlign=middle;" parent="1" vertex="1">
          <mxGeometry x="40" y="540" width="170" height="170" as="geometry" />
        </mxCell>
        <mxCell id="uF6mSDZLpJN5wUJK4P2C-1" value="&lt;span style=&quot;color: rgb(50, 50, 50); font-family: &amp;quot;Microsoft YaHei&amp;quot;, 微软雅黑, Arial; font-size: 18px; font-weight: 700; background-color: rgba(255, 255, 255, 0.01);&quot;&gt;数据收集与预处理&lt;/span&gt;" style="rounded=0;whiteSpace=wrap;html=1;" parent="1" vertex="1">
          <mxGeometry x="40" y="538" width="170" height="42" as="geometry" />
        </mxCell>
        <mxCell id="iLSBoepxBDSHzxSkh5cy-1" value="&lt;span style=&quot;color: rgb(50, 50, 50); font-family: &amp;quot;Microsoft YaHei&amp;quot;, 微软雅黑, Arial; font-size: 14px; background-color: rgba(255, 255, 255, 0.01);&quot;&gt;将机端观测量数据同步到云端数据仓库中。&lt;/span&gt;" style="whiteSpace=wrap;html=1;aspect=fixed;align=left;verticalAlign=middle;" vertex="1" parent="1">
          <mxGeometry x="320" y="540" width="170" height="170" as="geometry" />
        </mxCell>
        <mxCell id="iLSBoepxBDSHzxSkh5cy-2" value="&lt;span style=&quot;color: rgb(50, 50, 50); font-family: &amp;quot;Microsoft YaHei&amp;quot;, 微软雅黑, Arial; font-size: 18px; font-weight: 700; background-color: rgba(255, 255, 255, 0.01);&quot;&gt;观测量数据存储&lt;/span&gt;" style="rounded=0;whiteSpace=wrap;html=1;" vertex="1" parent="1">
          <mxGeometry x="320" y="538" width="170" height="42" as="geometry" />
        </mxCell>
        <mxCell id="iLSBoepxBDSHzxSkh5cy-3" value="&lt;span style=&quot;color: rgb(50, 50, 50); font-family: &amp;quot;Microsoft YaHei&amp;quot;, 微软雅黑, Arial; font-size: 14px; background-color: rgba(255, 255, 255, 0.01);&quot;&gt;1、特征提取与融合&lt;/span&gt;&lt;div style=&quot;resize: none; outline: none; font-size: 14px; color: rgb(50, 50, 50); font-family: &amp;quot;Microsoft YaHei&amp;quot;, 微软雅黑, Arial;&quot;&gt;2、数据集划分，将数据划分为训练集、验证集和测试集。&lt;/div&gt;" style="whiteSpace=wrap;html=1;aspect=fixed;align=left;verticalAlign=middle;spacingBottom=-16;" vertex="1" parent="1">
          <mxGeometry x="600" y="540" width="170" height="170" as="geometry" />
        </mxCell>
        <mxCell id="iLSBoepxBDSHzxSkh5cy-4" value="&lt;span style=&quot;color: rgb(50, 50, 50); font-family: &amp;quot;Microsoft YaHei&amp;quot;, 微软雅黑, Arial; font-size: 18px; font-weight: 700; background-color: rgba(255, 255, 255, 0.01);&quot;&gt;特征提取与融合&lt;/span&gt;" style="rounded=0;whiteSpace=wrap;html=1;" vertex="1" parent="1">
          <mxGeometry x="600" y="538" width="170" height="42" as="geometry" />
        </mxCell>
        <mxCell id="iLSBoepxBDSHzxSkh5cy-5" value="&lt;span style=&quot;color: rgb(50, 50, 50); font-family: &amp;quot;Microsoft YaHei&amp;quot;, 微软雅黑, Arial; font-size: 14px; background-color: rgba(255, 255, 255, 0.01);&quot;&gt;1、评估指标&lt;/span&gt;&lt;div style=&quot;resize: none; outline: none; font-size: 14px; color: rgb(50, 50, 50); font-family: &amp;quot;Microsoft YaHei&amp;quot;, 微软雅黑, Arial;&quot;&gt;2、模型优化&lt;/div&gt;" style="whiteSpace=wrap;html=1;aspect=fixed;align=left;verticalAlign=middle;" vertex="1" parent="1">
          <mxGeometry x="40" y="792" width="170" height="170" as="geometry" />
        </mxCell>
        <mxCell id="iLSBoepxBDSHzxSkh5cy-6" value="&lt;span style=&quot;color: rgb(50, 50, 50); font-family: &amp;quot;Microsoft YaHei&amp;quot;, 微软雅黑, Arial; font-size: 18px; font-weight: 700; background-color: rgba(255, 255, 255, 0.01);&quot;&gt;模型评估与优化&lt;/span&gt;" style="rounded=0;whiteSpace=wrap;html=1;" vertex="1" parent="1">
          <mxGeometry x="40" y="790" width="170" height="42" as="geometry" />
        </mxCell>
        <mxCell id="iLSBoepxBDSHzxSkh5cy-7" value="&lt;span style=&quot;color: rgb(50, 50, 50); font-family: &amp;quot;Microsoft YaHei&amp;quot;, 微软雅黑, Arial; font-size: 14px; background-color: rgba(255, 255, 255, 0.01);&quot;&gt;1、实时数据处理&lt;/span&gt;&lt;div style=&quot;resize: none; outline: none; font-size: 14px; color: rgb(50, 50, 50); font-family: &amp;quot;Microsoft YaHei&amp;quot;, 微软雅黑, Arial;&quot;&gt;2、故障识别&lt;/div&gt;&lt;div style=&quot;resize: none; outline: none; font-size: 14px; color: rgb(50, 50, 50); font-family: &amp;quot;Microsoft YaHei&amp;quot;, 微软雅黑, Arial;&quot;&gt;3、故障预测告警&lt;/div&gt;" style="whiteSpace=wrap;html=1;aspect=fixed;align=left;verticalAlign=middle;" vertex="1" parent="1">
          <mxGeometry x="320" y="792" width="170" height="170" as="geometry" />
        </mxCell>
        <mxCell id="iLSBoepxBDSHzxSkh5cy-8" value="&lt;span style=&quot;color: rgb(50, 50, 50); font-family: &amp;quot;Microsoft YaHei&amp;quot;, 微软雅黑, Arial; font-size: 18px; font-weight: 700; background-color: rgba(255, 255, 255, 0.01);&quot;&gt;故障预测与诊断&lt;/span&gt;" style="rounded=0;whiteSpace=wrap;html=1;" vertex="1" parent="1">
          <mxGeometry x="320" y="790" width="170" height="42" as="geometry" />
        </mxCell>
        <mxCell id="iLSBoepxBDSHzxSkh5cy-9" value="&lt;span style=&quot;color: rgb(50, 50, 50); font-family: &amp;quot;Microsoft YaHei&amp;quot;, 微软雅黑, Arial; font-size: 14px; background-color: rgba(255, 255, 255, 0.01);&quot;&gt;1、模型设计&lt;/span&gt;&lt;div style=&quot;resize: none; outline: none; font-size: 14px; color: rgb(50, 50, 50); font-family: &amp;quot;Microsoft YaHei&amp;quot;, 微软雅黑, Arial;&quot;&gt;2、模型训练&lt;br&gt;&lt;div style=&quot;resize: none; outline: none; font-size: inherit;&quot;&gt;3、模型验证&lt;/div&gt;&lt;div style=&quot;resize: none; outline: none; font-size: inherit;&quot;&gt;4、模型测试&lt;/div&gt;&lt;div style=&quot;resize: none; outline: none; font-size: inherit;&quot;&gt;5、生成训练和验证的损失曲线图表，测试报告&lt;/div&gt;&lt;/div&gt;" style="whiteSpace=wrap;html=1;aspect=fixed;align=left;verticalAlign=bottom;spacingBottom=9;" vertex="1" parent="1">
          <mxGeometry x="600" y="792" width="170" height="170" as="geometry" />
        </mxCell>
        <mxCell id="iLSBoepxBDSHzxSkh5cy-10" value="&lt;span style=&quot;color: rgb(50, 50, 50); font-family: &amp;quot;Microsoft YaHei&amp;quot;, 微软雅黑, Arial; font-size: 18px; font-weight: 700; background-color: rgba(255, 255, 255, 0.01);&quot;&gt;Informer模型设计与训练&lt;/span&gt;" style="rounded=0;whiteSpace=wrap;html=1;" vertex="1" parent="1">
          <mxGeometry x="600" y="792" width="170" height="42" as="geometry" />
        </mxCell>
      </root>
    </mxGraphModel>
  </diagram>
</mxfile>
